<svg xmlns="http://www.w3.org/2000/svg" xmlns:xlink="http://www.w3.org/1999/xlink" width="330" zoomAndPan="magnify" viewBox="0 0 247.5 107.999999" height="144" preserveAspectRatio="xMidYMid meet" version="1.2"><defs><clipPath id="8f5019e359"><path d="M 6.496094 10.027344 L 102.328125 10.027344 L 102.328125 107.664062 L 6.496094 107.664062 Z M 6.496094 10.027344 "/></clipPath></defs><g id="855ae2e61e"><g clip-rule="nonzero" clip-path="url(#8f5019e359)"><path style=" stroke:none;fill-rule:nonzero;fill:#475569;fill-opacity:1;" d="M 102.328125 32.863281 L 102.316406 32.457031 C 99.683594 32.1875 97.039062 31.691406 94.429688 31.113281 C 83.960938 28.777344 73.796875 25.019531 64.023438 20.636719 C 61.351562 19.417969 58.09375 17.878906 55.496094 16.523438 C 52.300781 14.929688 48.832031 12.992188 45.714844 11.261719 L 43.695312 10.058594 L 8.257812 90.113281 L 7.871094 91.121094 L 7.789062 91.335938 L 6.589844 94.472656 C 7.945312 94.523438 9.636719 94.621094 10.976562 94.726562 C 13.738281 94.941406 16.785156 95.253906 19.546875 95.585938 C 29.558594 96.792969 42.132812 99.179688 52 101.324219 C 60.398438 103.113281 68.980469 105.335938 77.246094 107.664062 C 74.507812 106.730469 71.773438 105.769531 69.019531 104.859375 C 60.824219 102.164062 52.316406 99.65625 43.96875 97.515625 C 34.335938 95.113281 23.886719 92.226562 13.828125 90.621094 L 45.984375 16.09375 C 51.476562 18.753906 57.167969 21.316406 62.816406 23.503906 C 72.949219 27.414062 83.125 31.640625 93.84375 33.4375 C 96.238281 33.832031 98.625 34.160156 101.070312 34.316406 C 101.121094 35.128906 102.171875 50.808594 102.171875 50.808594 L 102.328125 32.863281 "/></g><path style=" stroke:none;fill-rule:nonzero;fill:#475569;fill-opacity:1;" d="M 1.304688 76.78125 L 0 79.0625 L 5.589844 90.652344 L 39.125 15.78125 L 1.304688 76.78125 "/><path style=" stroke:none;fill-rule:nonzero;fill:#475569;fill-opacity:1;" d="M 37.820312 14.480469 L 0.191406 60.492188 L 4.421875 66.800781 Z M 37.820312 14.480469 "/><path style=" stroke:none;fill-rule:nonzero;fill:#475569;fill-opacity:1;" d="M 72.039062 5.136719 C 72.890625 5.492188 73.777344 6.308594 74.507812 7.875 C 69.234375 10.496094 64.28125 15.957031 63.519531 16.820312 L 66.210938 18.003906 C 67.96875 16.007812 71.652344 12.167969 75.289062 10.113281 C 76.035156 12.972656 76.390625 17.28125 75.945312 23.683594 L 77.894531 23.84375 C 78.328125 17.605469 78.152344 12.710938 77.257812 9.191406 C 78.664062 8.6875 80.003906 8.5625 81.164062 9.046875 C 83.457031 10.003906 85.996094 14.269531 85.070312 27.59375 L 87.019531 27.753906 C 87.847656 15.804688 86.441406 8.777344 82.039062 6.941406 C 80.351562 6.234375 78.457031 6.382812 76.539062 7.023438 C 75.695312 5.03125 74.5 3.691406 72.917969 3.03125 C 65.976562 0.128906 55.527344 11.625 54.398438 12.910156 L 57.085938 14.09375 C 59.859375 10.945312 67.421875 3.203125 72.039062 5.136719 "/><g style="fill:#d4af37;fill-opacity:1;"><g transform="translate(35.152894, 72.516623)"><path style="stroke:none" d="M 9.640625 0.40625 C 7.910156 0.40625 6.421875 0.125 5.171875 -0.4375 C 3.929688 -1.007812 2.972656 -1.816406 2.296875 -2.859375 C 1.628906 -3.910156 1.296875 -5.140625 1.296875 -6.546875 L 5.875 -6.546875 C 5.875 -5.566406 6.210938 -4.800781 6.890625 -4.25 C 7.566406 -3.707031 8.472656 -3.4375 9.609375 -3.4375 C 10.585938 -3.4375 11.359375 -3.625 11.921875 -4 C 12.492188 -4.382812 12.78125 -4.921875 12.78125 -5.609375 C 12.78125 -6.335938 12.4375 -6.925781 11.75 -7.375 C 11.0625 -7.820312 9.992188 -8.203125 8.546875 -8.515625 C 6.140625 -9.023438 4.359375 -9.796875 3.203125 -10.828125 C 2.046875 -11.867188 1.46875 -13.222656 1.46875 -14.890625 C 1.46875 -16.773438 2.148438 -18.257812 3.515625 -19.34375 C 4.890625 -20.425781 6.765625 -20.96875 9.140625 -20.96875 C 10.765625 -20.96875 12.171875 -20.6875 13.359375 -20.125 C 14.554688 -19.570312 15.484375 -18.789062 16.140625 -17.78125 C 16.796875 -16.78125 17.125 -15.582031 17.125 -14.1875 L 12.625 -14.1875 C 12.625 -15.101562 12.320312 -15.828125 11.71875 -16.359375 C 11.113281 -16.890625 10.269531 -17.15625 9.1875 -17.15625 C 8.207031 -17.15625 7.429688 -16.960938 6.859375 -16.578125 C 6.296875 -16.203125 6.015625 -15.671875 6.015625 -14.984375 C 6.015625 -14.359375 6.328125 -13.828125 6.953125 -13.390625 C 7.585938 -12.960938 8.6875 -12.5625 10.25 -12.1875 C 12.8125 -11.582031 14.660156 -10.769531 15.796875 -9.75 C 16.929688 -8.726562 17.5 -7.40625 17.5 -5.78125 C 17.5 -3.84375 16.800781 -2.328125 15.40625 -1.234375 C 14.007812 -0.140625 12.085938 0.40625 9.640625 0.40625 Z M 9.640625 0.40625 "/></g></g><g style="fill:#d4af37;fill-opacity:1;"><g transform="translate(53.978634, 72.516623)"><path style="stroke:none" d="M 2.46875 0 L 2.46875 -20.5625 L 10.515625 -20.5625 C 12.179688 -20.5625 13.617188 -20.253906 14.828125 -19.640625 C 16.046875 -19.035156 16.992188 -18.175781 17.671875 -17.0625 C 18.347656 -15.945312 18.6875 -14.632812 18.6875 -13.125 C 18.6875 -11.632812 18.347656 -10.332031 17.671875 -9.21875 C 16.992188 -8.101562 16.046875 -7.242188 14.828125 -6.640625 C 13.617188 -6.035156 12.179688 -5.734375 10.515625 -5.734375 L 7.140625 -5.734375 L 7.140625 0 Z M 7.109375 -9.75 L 10.140625 -9.75 C 11.347656 -9.75 12.28125 -10.035156 12.9375 -10.609375 C 13.59375 -11.191406 13.921875 -12.019531 13.921875 -13.09375 C 13.921875 -14.175781 13.59375 -15.007812 12.9375 -15.59375 C 12.28125 -16.1875 11.347656 -16.484375 10.140625 -16.484375 L 7.109375 -16.484375 Z M 7.109375 -9.75 "/></g></g><g style="fill:#d4af37;fill-opacity:1;"><g transform="translate(73.509238, 72.516623)"><path style="stroke:none" d="M 0.265625 0 L 8.4375 -20.5625 L 13.015625 -20.5625 L 21.171875 0 L 16.1875 0 L 14.8125 -3.546875 L 6.640625 -3.546875 L 5.265625 0 Z M 7.84375 -7.21875 L 13.625 -7.21875 L 10.71875 -14.75 Z M 7.84375 -7.21875 "/></g></g><g style="fill:#d4af37;fill-opacity:1;"><g transform="translate(94.948843, 72.516623)"><path style="stroke:none" d="M 2.46875 0 L 2.46875 -20.5625 L 11.25 -20.5625 C 12.8125 -20.5625 14.171875 -20.273438 15.328125 -19.703125 C 16.484375 -19.140625 17.375 -18.328125 18 -17.265625 C 18.632812 -16.210938 18.953125 -14.953125 18.953125 -13.484375 C 18.953125 -11.972656 18.609375 -10.671875 17.921875 -9.578125 C 17.234375 -8.492188 16.273438 -7.679688 15.046875 -7.140625 L 19.296875 0 L 13.890625 0 L 10.21875 -6.40625 L 7.140625 -6.40625 L 7.140625 0 Z M 7.078125 -10.34375 L 10.640625 -10.34375 C 11.785156 -10.34375 12.664062 -10.609375 13.28125 -11.140625 C 13.90625 -11.679688 14.21875 -12.453125 14.21875 -13.453125 C 14.21875 -14.453125 13.90625 -15.21875 13.28125 -15.75 C 12.664062 -16.289062 11.785156 -16.5625 10.640625 -16.5625 L 7.078125 -16.5625 Z M 7.078125 -10.34375 "/></g></g><g style="fill:#d4af37;fill-opacity:1;"><g transform="translate(115.624847, 72.516623)"><path style="stroke:none" d="M 2.46875 0 L 2.46875 -20.5625 L 7.140625 -20.5625 L 7.140625 -12.65625 L 8.90625 -12.65625 C 10.0625 -12.65625 10.90625 -12.84375 11.4375 -13.21875 C 11.976562 -13.59375 12.425781 -14.257812 12.78125 -15.21875 L 14.71875 -20.5625 L 19.765625 -20.5625 L 16.921875 -13.25 C 16.660156 -12.582031 16.367188 -11.984375 16.046875 -11.453125 C 15.722656 -10.921875 15.359375 -10.460938 14.953125 -10.078125 L 20.5 0 L 15.0625 0 L 10.65625 -8.34375 C 10.488281 -8.320312 10.320312 -8.3125 10.15625 -8.3125 C 9.988281 -8.3125 9.804688 -8.3125 9.609375 -8.3125 L 7.140625 -8.3125 L 7.140625 0 Z M 2.46875 0 "/></g></g><g style="fill:#d4af37;fill-opacity:1;"><g transform="translate(136.978665, 72.516623)"><path style="stroke:none" d=""/></g></g><g style="fill:#d4af37;fill-opacity:1;"><g transform="translate(143.880457, 72.516623)"><path style="stroke:none" d=""/></g></g><g style="fill:#d4af37;fill-opacity:1;"><g transform="translate(150.787608, 72.516623)"><path style="stroke:none" d="M 9.640625 0.40625 C 7.910156 0.40625 6.421875 0.125 5.171875 -0.4375 C 3.929688 -1.007812 2.972656 -1.816406 2.296875 -2.859375 C 1.628906 -3.910156 1.296875 -5.140625 1.296875 -6.546875 L 5.875 -6.546875 C 5.875 -5.566406 6.210938 -4.800781 6.890625 -4.25 C 7.566406 -3.707031 8.472656 -3.4375 9.609375 -3.4375 C 10.585938 -3.4375 11.359375 -3.625 11.921875 -4 C 12.492188 -4.382812 12.78125 -4.921875 12.78125 -5.609375 C 12.78125 -6.335938 12.4375 -6.925781 11.75 -7.375 C 11.0625 -7.820312 9.992188 -8.203125 8.546875 -8.515625 C 6.140625 -9.023438 4.359375 -9.796875 3.203125 -10.828125 C 2.046875 -11.867188 1.46875 -13.222656 1.46875 -14.890625 C 1.46875 -16.773438 2.148438 -18.257812 3.515625 -19.34375 C 4.890625 -20.425781 6.765625 -20.96875 9.140625 -20.96875 C 10.765625 -20.96875 12.171875 -20.6875 13.359375 -20.125 C 14.554688 -19.570312 15.484375 -18.789062 16.140625 -17.78125 C 16.796875 -16.78125 17.125 -15.582031 17.125 -14.1875 L 12.625 -14.1875 C 12.625 -15.101562 12.320312 -15.828125 11.71875 -16.359375 C 11.113281 -16.890625 10.269531 -17.15625 9.1875 -17.15625 C 8.207031 -17.15625 7.429688 -16.960938 6.859375 -16.578125 C 6.296875 -16.203125 6.015625 -15.671875 6.015625 -14.984375 C 6.015625 -14.359375 6.328125 -13.828125 6.953125 -13.390625 C 7.585938 -12.960938 8.6875 -12.5625 10.25 -12.1875 C 12.8125 -11.582031 14.660156 -10.769531 15.796875 -9.75 C 16.929688 -8.726562 17.5 -7.40625 17.5 -5.78125 C 17.5 -3.84375 16.800781 -2.328125 15.40625 -1.234375 C 14.007812 -0.140625 12.085938 0.40625 9.640625 0.40625 Z M 9.640625 0.40625 "/></g></g><g style="fill:#d4af37;fill-opacity:1;"><g transform="translate(169.613348, 72.516623)"><path style="stroke:none" d="M 15.1875 0 L 15.1875 -8.28125 L 7.140625 -8.28125 L 7.140625 0 L 2.46875 0 L 2.46875 -20.5625 L 7.140625 -20.5625 L 7.140625 -12.65625 L 15.1875 -12.65625 L 15.1875 -20.5625 L 19.859375 -20.5625 L 19.859375 0 Z M 15.1875 0 "/></g></g><g style="fill:#d4af37;fill-opacity:1;"><g transform="translate(191.934035, 72.516623)"><path style="stroke:none" d="M 12.21875 0.40625 C 10.082031 0.40625 8.1875 -0.046875 6.53125 -0.953125 C 4.875 -1.867188 3.582031 -3.128906 2.65625 -4.734375 C 1.726562 -6.335938 1.265625 -8.1875 1.265625 -10.28125 C 1.265625 -12.375 1.726562 -14.222656 2.65625 -15.828125 C 3.582031 -17.429688 4.875 -18.6875 6.53125 -19.59375 C 8.1875 -20.507812 10.082031 -20.96875 12.21875 -20.96875 C 14.375 -20.96875 16.273438 -20.507812 17.921875 -19.59375 C 19.566406 -18.6875 20.859375 -17.429688 21.796875 -15.828125 C 22.734375 -14.222656 23.203125 -12.375 23.203125 -10.28125 C 23.203125 -8.1875 22.734375 -6.335938 21.796875 -4.734375 C 20.859375 -3.128906 19.566406 -1.867188 17.921875 -0.953125 C 16.273438 -0.046875 14.375 0.40625 12.21875 0.40625 Z M 6.015625 -10.28125 C 6.015625 -9.050781 6.28125 -7.960938 6.8125 -7.015625 C 7.34375 -6.078125 8.070312 -5.34375 9 -4.8125 C 9.9375 -4.289062 11.007812 -4.03125 12.21875 -4.03125 C 13.457031 -4.03125 14.539062 -4.289062 15.46875 -4.8125 C 16.394531 -5.34375 17.117188 -6.078125 17.640625 -7.015625 C 18.160156 -7.960938 18.421875 -9.050781 18.421875 -10.28125 C 18.421875 -11.507812 18.160156 -12.59375 17.640625 -13.53125 C 17.117188 -14.476562 16.394531 -15.210938 15.46875 -15.734375 C 14.539062 -16.265625 13.457031 -16.53125 12.21875 -16.53125 C 11.007812 -16.53125 9.9375 -16.265625 9 -15.734375 C 8.070312 -15.210938 7.34375 -14.476562 6.8125 -13.53125 C 6.28125 -12.59375 6.015625 -11.507812 6.015625 -10.28125 Z M 6.015625 -10.28125 "/></g></g><g style="fill:#d4af37;fill-opacity:1;"><g transform="translate(216.398686, 72.516623)"><path style="stroke:none" d="M 2.46875 0 L 2.46875 -20.5625 L 10.515625 -20.5625 C 12.179688 -20.5625 13.617188 -20.253906 14.828125 -19.640625 C 16.046875 -19.035156 16.992188 -18.175781 17.671875 -17.0625 C 18.347656 -15.945312 18.6875 -14.632812 18.6875 -13.125 C 18.6875 -11.632812 18.347656 -10.332031 17.671875 -9.21875 C 16.992188 -8.101562 16.046875 -7.242188 14.828125 -6.640625 C 13.617188 -6.035156 12.179688 -5.734375 10.515625 -5.734375 L 7.140625 -5.734375 L 7.140625 0 Z M 7.109375 -9.75 L 10.140625 -9.75 C 11.347656 -9.75 12.28125 -10.035156 12.9375 -10.609375 C 13.59375 -11.191406 13.921875 -12.019531 13.921875 -13.09375 C 13.921875 -14.175781 13.59375 -15.007812 12.9375 -15.59375 C 12.28125 -16.1875 11.347656 -16.484375 10.140625 -16.484375 L 7.109375 -16.484375 Z M 7.109375 -9.75 "/></g></g></g></svg>